<?xml version="1.0" encoding="utf-8"?>
<!-- Generator: Adobe Illustrator 24.0.2, SVG Export Plug-In . SVG Version: 6.00 Build 0)  -->
<svg version="1.1" id="Capa_1" xmlns="http://www.w3.org/2000/svg" xmlns:xlink="http://www.w3.org/1999/xlink" x="0px" y="0px"
	 viewBox="0 0 990.21 1140.93" style="enable-background:new 0 0 990.21 1140.93;" xml:space="preserve">
<style type="text/css">
	.st0{fill:none;}
	.st1{fill:#0075AF;}
	.st2{fill:#4EA0B7;}
	.st3{fill:#5C86C5;}
	.st4{fill:#2E9C94;}
	.st5{fill:#8AB262;}
	.st6{fill:#F5F5F5;}
</style>
<g>
	<rect x="0" y="-0.52" class="st0" width="990.21" height="1141.45"/>
	<g>
		<path class="st1" d="M288.29,393.09c-6.59-3.87-13.81-5.72-20.94-5.72c-14.2,0-28.02,7.31-35.74,20.43
			c-11.59,19.71-5,45.09,14.71,56.68c6.59,3.87,13.81,5.72,20.94,5.72c8.19,0,16.21-2.5,23.06-7.08c4.37-2.93,8.22-6.73,11.3-11.33
			c0.45-0.68,0.96-1.31,1.38-2.02C314.59,430.05,308,404.68,288.29,393.09z"/>
		<path class="st2" d="M716.66,772.39c-12.24-7.2-25.65-10.62-38.9-10.62c-17.62,0-34.85,6.19-48.67,17.48
			c-4.09,3.34-7.94,7.06-11.33,11.3c-2.3,2.87-4.45,5.9-6.36,9.16c-21.52,36.61-9.29,83.74,27.32,105.26
			c12.24,7.2,25.65,10.62,38.9,10.62c26.36,0,52.04-13.57,66.37-37.94C765.5,841.04,753.27,793.91,716.66,772.39z"/>
		<path class="st3" d="M720.6,277.32c-14.12-8.3-29.6-12.25-44.88-12.25c-30.42,0-60.05,15.66-76.58,43.78
			c-19.58,33.31-14.86,74.11,8.68,102.07c3.41,4.04,7.21,7.8,11.39,11.25c3.57,2.94,7.34,5.72,11.46,8.14
			c14.12,8.3,29.6,12.25,44.88,12.25c30.42,0,60.05-15.66,76.58-43.78C776.96,356.53,762.84,302.15,720.6,277.32z"/>
		<path class="st4" d="M698.41,578.32c-7.53-4.43-15.79-6.53-23.94-6.53c-16.22,0-32.02,8.35-40.84,23.35
			c-2.32,3.94-3.78,8.11-4.85,12.33c-1.35,5.28-1.86,10.65-1.37,15.95c1.35,14.65,9.39,28.47,23.04,36.5
			c7.53,4.43,15.79,6.53,23.94,6.53c16.22,0,32.02-8.35,40.84-23.35C728.47,620.56,720.94,591.56,698.41,578.32z"/>
		<path class="st5" d="M464.27,232.98c-9.42-5.54-19.73-8.17-29.92-8.17c-20.28,0-40.03,10.44-51.05,29.19
			c-16.56,28.16-7.14,64.41,21.02,80.97c6.97,4.1,14.44,6.58,21.98,7.61c2.65,0.36,5.3,0.56,7.94,0.56c2.7,0,5.39-0.21,8.05-0.58
			c17.33-2.38,33.45-12.36,43-28.61C501.84,285.79,492.43,249.54,464.27,232.98z"/>
		<path class="st6" d="M724.76,758.59c-14.27-8.39-30.52-12.82-47-12.82h0c-22.24,0-43.39,8.21-59.96,22.19l-94.55-94.55
			c4.75-5.45,9.23-11.23,13.03-17.69c7.49-12.74,12.19-26.33,14.53-40.09l60.42,6.13c0.9,20.75,11.92,40.65,31.11,51.93
			c9.73,5.72,20.81,8.74,32.04,8.74c22.37,0,43.31-11.97,54.63-31.24c17.69-30.1,7.6-68.98-22.5-86.68
			c-9.73-5.72-20.81-8.74-32.04-8.74h0c-22.37,0-43.31,11.97-54.64,31.24c-3.52,5.99-5.9,12.34-7.28,18.79l-60.01-6.09
			c0.97-29.68-9.36-59.02-29.18-81.72l84.47-84.47c4.58,3.87,9.45,7.45,14.73,10.55c16.09,9.46,34.41,14.46,52.99,14.46
			c37.01,0,71.63-19.8,90.37-51.67c29.26-49.78,12.57-114.09-37.21-143.36c-16.09-9.46-34.41-14.46-52.98-14.46h0
			c-37.01,0-71.64,19.8-90.37,51.67c-14.18,24.12-18.11,52.31-11.08,79.39c4.11,15.85,11.78,30.13,22.2,42.16l-84.41,84.41
			c-5.45-4.75-11.35-9.11-17.81-12.91c-16.41-9.64-34.18-14.87-51.95-16.06V358.6c23.44-2.55,44.72-16.01,56.79-36.54
			c21-35.72,9.02-81.87-26.7-102.87c-11.54-6.79-24.69-10.37-38.02-10.37h0c-26.56,0-51.4,14.21-64.85,37.08
			c-21,35.72-9.02,81.87,26.7,102.87c9.24,5.43,19.52,8.71,30.08,9.84v119.36c-25.5,1.76-50.02,11.7-69.65,28.83l-43.53-43.53
			c1.31-1.73,2.57-3.51,3.68-5.4c7.77-13.22,9.93-28.67,6.08-43.51c-3.85-14.84-13.25-27.3-26.47-35.07
			c-8.82-5.18-18.86-7.92-29.05-7.92h0c-20.28,0-39.26,10.85-49.53,28.32c-7.77,13.22-9.93,28.67-6.07,43.51
			c3.85,14.84,13.25,27.29,26.47,35.07c8.82,5.18,18.86,7.92,29.05,7.92c12.62,0,24.72-4.21,34.55-11.59l43.52,43.52
			c-4.75,5.45-9.23,11.23-13.03,17.69c-33.11,56.33-14.29,128.83,42.04,161.94c18.83,11.07,39.47,16.33,59.84,16.33
			c28.35,0,56.05-10.4,77.76-29.35l94.53,94.53c-3.24,3.87-6.28,7.92-8.88,12.33c-25.96,44.16-11.15,101.2,33.01,127.16
			c14.27,8.39,30.53,12.82,47,12.82c32.83,0,63.54-17.56,80.16-45.83C783.73,841.6,768.92,784.55,724.76,758.59z M628.78,607.46
			c1.08-4.22,2.54-8.39,4.85-12.33c8.82-15,24.62-23.35,40.84-23.35c8.15,0,16.4,2.11,23.94,6.53
			c22.53,13.24,30.06,42.25,16.81,64.78c-8.82,15-24.62,23.35-40.84,23.35c-8.15,0-16.4-2.11-23.94-6.53
			c-13.65-8.02-21.68-21.85-23.04-36.5C626.92,618.11,627.43,612.75,628.78,607.46z M675.72,265.07c15.28,0,30.76,3.95,44.88,12.25
			c42.25,24.83,56.36,79.21,31.53,121.46c-16.53,28.12-46.16,43.78-76.58,43.78c-15.28,0-30.76-3.95-44.88-12.25
			c-4.12-2.42-7.88-5.19-11.46-8.14c-4.18-3.44-7.98-7.2-11.39-11.25c-23.55-27.96-28.26-68.76-8.68-102.07
			C615.67,280.73,645.3,265.07,675.72,265.07z M246.32,464.48c-19.71-11.59-26.3-36.96-14.71-56.68
			c7.71-13.12,21.54-20.43,35.74-20.43c7.13,0,14.35,1.84,20.94,5.72c19.71,11.59,26.3,36.96,14.71,56.68
			c-0.42,0.71-0.92,1.34-1.38,2.02c-3.08,4.61-6.93,8.41-11.3,11.33c-6.84,4.58-14.87,7.08-23.06,7.08
			C260.13,470.2,252.91,468.35,246.32,464.48z M434.18,698.1c-18.12,0-36.01-4.89-51.73-14.13c-23.56-13.85-40.31-36.04-47.18-62.49
			c-6.87-26.45-3.02-53.99,10.83-77.55c3.06-5.21,6.7-9.95,10.57-14.47c3.5-4.08,7.29-7.83,11.35-11.28
			c16.28-13.85,36.62-22.44,58.28-24.19c2.7-0.22,5.38-0.54,8.12-0.54c2.64,0,5.25,0.32,7.88,0.53c15.38,1.21,30.41,5.7,43.85,13.6
			c5.22,3.07,10.05,6.61,14.57,10.46c4.09,3.48,7.85,7.27,11.32,11.32c9.97,11.65,17.32,25.43,21.29,40.71
			c2.41,9.29,3.43,18.7,3.23,28.04c-0.11,5.35-0.69,10.66-1.65,15.92c-2.13,11.69-6.2,23.05-12.4,33.59
			c-3.06,5.21-6.7,9.95-10.57,14.47c-3.5,4.08-7.29,7.83-11.35,11.29C482.26,688.95,458.83,698.1,434.18,698.1z M464.27,232.98
			c28.16,16.55,37.57,52.81,21.02,80.97c-9.55,16.25-25.67,26.23-43,28.61c-2.66,0.37-5.35,0.58-8.05,0.58
			c-2.65,0-5.3-0.2-7.94-0.56c-7.54-1.03-15.01-3.51-21.98-7.61c-28.16-16.56-37.57-52.81-21.02-80.97
			c11.02-18.75,30.77-29.19,51.05-29.19C444.53,224.82,454.85,227.45,464.27,232.98z M677.61,915.59c-13.24,0-26.65-3.42-38.9-10.62
			c-36.61-21.52-48.85-68.65-27.32-105.26c1.92-3.26,4.06-6.29,6.36-9.16c3.4-4.24,7.24-7.96,11.33-11.3
			c13.82-11.3,31.05-17.48,48.67-17.48c13.24,0,26.65,3.42,38.9,10.62c36.61,21.52,48.85,68.65,27.32,105.26
			C729.65,902.02,703.98,915.59,677.61,915.59z"/>
	</g>
</g>
</svg>
