<?xml version="1.0" encoding="utf-8"?>
<!-- Generator: Adobe Illustrator 24.0.2, SVG Export Plug-In . SVG Version: 6.00 Build 0)  -->
<svg version="1.1" id="Capa_1" xmlns="http://www.w3.org/2000/svg" xmlns:xlink="http://www.w3.org/1999/xlink" x="0px" y="0px"
	 viewBox="0 0 1200 708.2" style="enable-background:new 0 0 1200 708.2;" xml:space="preserve">
<style type="text/css">
	.st0{fill:#002934;}
	.st1{fill:#0075AF;}
	.st2{fill:#4EA0B7;}
	.st3{fill:#5C86C5;}
	.st4{fill:#2E9C94;}
	.st5{fill:#8AB262;}
	.st6{opacity:0.35;fill:none;}
</style>
<g>
	<g>
		<g>
			<path class="st0" d="M564,282.5c10.1,0,18.1-2.9,23.8-8.5c5.7-5.6,9-14.6,9.8-26.5l0.1-1.4h-10.9l-0.1,1.2
				c-0.7,9.1-2.8,15.6-6.1,19.4c-3.3,3.7-8.9,5.6-16.5,5.6c-7.3,0-12.8-2.8-16.8-8.6c-4.1-5.9-6.1-14.3-6.1-25v-22.2
				c0-10.8,2.1-19.1,6.3-24.6c4.1-5.5,9.8-8.2,17.2-8.2c7,0,12.3,1.9,15.7,5.6c3.5,3.8,5.6,10.3,6.3,19.4l0.1,1.2h10.9l-0.1-1.4
				c-0.8-11.8-4-20.7-9.5-26.4c-5.6-5.8-13.5-8.7-23.5-8.7c-10.6,0-19.1,3.9-25.3,11.6c-6.1,7.6-9.2,18.2-9.2,31.5v22.5
				c0,13.3,3.1,23.9,9,31.7C545.2,278.5,553.6,282.5,564,282.5z"/>
			<path class="st0" d="M639.7,282.5c10.7,0,18.7-3.7,24-10.9l0.6-0.8l-5.8-7.3l-1.1,1.2c-4.5,5.3-10.2,7.9-17.4,7.9
				c-6.5,0-11.4-2.2-15-6.7c-3.6-4.5-5.4-11.1-5.4-19.6v-3h45.8v-8.7c-0.1-11.5-2.5-20.2-7-25.9c-4.6-5.8-11.4-8.7-20.2-8.7
				c-9,0-16.3,3.4-21.4,10.2c-5.1,6.6-7.7,15.9-7.7,27.4v9.4c0.1,11.2,2.8,20.1,8.2,26.2C622.8,279.4,630.3,282.5,639.7,282.5z
				 M619.9,233.2c0.5-7.5,2.2-13.2,5.2-17.1c3.1-4.1,7.5-6.1,13.3-6.1c10.8,0,16.3,7.4,16.6,22.5v0.7H619.9z"/>
			<path class="st0" d="M717.1,214.5c2.2,3,3.3,7.9,3.4,14.5v52.1H731v-53c-0.4-18.7-7.7-28.2-22-28.2c-4.8,0-9.1,1.3-12.8,3.9
				c-2.5,1.8-4.8,4-6.7,6.6l-0.2-9.1h-10.2v79.8h10.6v-54.6c1.6-5.1,4-9.1,7.1-12c3.1-2.9,6.4-4.3,10.2-4.3
				C711.7,210.1,715,211.5,717.1,214.5z"/>
			<path class="st0" d="M752.8,262.1c0.3,13.5,5.5,20.4,15.6,20.4c3.6,0,6.3-0.4,8.3-1.3l0.8-0.4l-0.3-9.6l-1.5,0.3
				c-2.5,0.5-4.3,0.7-5.5,0.7c-2.5,0-4.2-0.8-5.2-2.5c-1.1-1.8-1.7-4.8-1.7-8.7v-49.9h13.2v-9.8h-13.2v-19.7h-10.6v19.7h-11.9v9.8
				h11.9V262.1z"/>
			<path class="st0" d="M817.3,282.5c10.7,0,18.7-3.7,24-10.9l0.6-0.8l-5.8-7.3l-1.1,1.2c-4.5,5.3-10.2,7.9-17.4,7.9
				c-6.5,0-11.4-2.2-15-6.7c-3.6-4.5-5.4-11.1-5.4-19.6v-3h45.8v-8.7c-0.1-11.5-2.5-20.2-7-25.9c-4.6-5.8-11.4-8.7-20.2-8.7
				c-9,0-16.3,3.4-21.4,10.2c-5.1,6.6-7.7,15.9-7.7,27.4v9.4c0.1,11.2,2.8,20.1,8.2,26.2C800.4,279.4,807.9,282.5,817.3,282.5z
				 M797.5,233.2c0.5-7.5,2.2-13.2,5.2-17.1c3.1-4.1,7.5-6.1,13.3-6.1c10.8,0,16.3,7.4,16.6,22.5v0.7H797.5z"/>
			<path class="st0" d="M867.3,226.8c1.2-5,3.2-9,6-11.8c2.7-2.8,6-4.1,10.1-4.1c1.4,0,3,0.2,4.8,0.5l1.5,0.3l0.2-10.3l-0.7-0.4
				c-1.3-0.7-3.1-1.1-5.4-1.1c-7,0-12.5,3.1-16.4,9.1l-0.1-7.7h-10.4v79.8h10.6L867.3,226.8z"/>
			<path class="st0" d="M536.2,423.7h10.6v-70h15.1v-9.8h-15.1v-8.1c0-5,1-8.9,3-11.6c1.9-2.5,4.5-3.8,7.9-3.8
				c2.1,0,4.1,0.2,6.1,0.7l1.5,0.4l0.8-9.9l-1-0.3c-2.5-0.9-5.2-1.3-8.1-1.3c-6.5,0-11.6,2.2-15.3,6.6c-3.6,4.3-5.5,10.5-5.6,18.5
				v8.8h-10.6v9.8h10.6V423.7z"/>
			<path class="st0" d="M630.3,387.8v-8.2c0-11.4-2.7-20.5-7.9-27.1c-5.3-6.7-12.5-10.1-21.7-10.1c-9.1,0-16.4,3.4-21.6,10.2
				c-5.2,6.7-7.8,15.8-7.8,27.2v9.1c0.2,11.1,2.9,19.9,8.1,26.3c5.3,6.5,12.5,9.7,21.5,9.7s16.2-3.4,21.5-10
				C627.6,408.6,630.3,399.4,630.3,387.8z M619.7,379.8v8.2c0,8.8-1.7,15.6-5,20.2c-3.2,4.6-7.7,6.8-13.8,6.8
				c-6,0-10.5-2.3-13.8-7.1c-3.4-4.8-5.1-11.6-5.1-20.2v-8.5c0.1-8.4,1.9-15.1,5.3-19.8c3.4-4.7,7.8-6.9,13.5-6.9
				c5.9,0,10.4,2.3,13.8,7.1C618,364.5,619.7,371.3,619.7,379.8z"/>
			<path class="st0" d="M672.2,342.5c-7,0-12.5,3.1-16.4,9.1l-0.1-7.7h-10.4v79.8h10.6l0-54.3c1.2-5,3.2-9,6-11.8
				c2.7-2.7,6-4.1,10.1-4.1c1.4,0,3,0.2,4.8,0.5l1.5,0.3l0.2-10.3l-0.7-0.4C676.3,342.8,674.5,342.5,672.2,342.5z"/>
			<path class="st0" d="M748.5,317.2h-25.8v106.4h24.8c12.3,0,22-3.8,28.9-11.4c6.8-7.5,10.3-18.1,10.3-31.4v-21.8
				c-0.2-12.9-3.7-23.2-10.5-30.6C769.4,321,760.1,317.2,748.5,317.2z M775.9,359.9v21.7c-0.1,10.3-2.7,18.2-7.5,23.7
				c-4.8,5.4-11.7,8.1-20.5,8.1h-14.4v-85.8h14.8c8.9,0,15.9,2.8,20.5,8.4C773.5,341.6,775.9,349.6,775.9,359.9z"/>
			<rect x="804.4" y="343.9" class="st0" width="10.6" height="79.8"/>
			<path class="st0" d="M814.7,318c-1.2-1.5-2.8-2.2-4.9-2.2c-2.1,0-3.7,0.7-4.9,2.2c-1.1,1.4-1.6,3-1.6,5c0,1.9,0.6,3.6,1.6,4.9
				c1.2,1.4,2.8,2.2,4.9,2.2c2.1,0,3.7-0.7,4.9-2.2c1.1-1.4,1.7-3,1.7-5C816.4,321.1,815.8,319.4,814.7,318z"/>
			<path class="st0" d="M879.2,446.7c4.6-5.1,7-12.5,7-22.1v-80.6h-9.9l-0.3,7.7c-4.5-6.1-10.8-9.2-18.6-9.2
				c-8.8,0-15.5,3.2-19.9,9.7c-4.3,6.3-6.5,15.7-6.5,28.1v8.4c0.1,11.6,2.4,20.7,6.8,26.9c4.5,6.4,11,9.6,19.5,9.6
				c7.7,0,13.9-2.7,18.3-8.1v8c0,6.6-1.4,11.6-4.1,14.7c-2.6,3.1-7,4.7-13,4.7c-6.5,0-12.3-2.9-17.3-8.6l-1.2-1.3l-5.2,7.9l0.6,0.7
				c2.4,3.2,5.8,5.9,10.3,8c4.5,2.2,9,3.3,13.4,3.3C867.8,454.4,874.6,451.8,879.2,446.7z M875.6,364.9v38.9
				c-3.3,7.5-8.8,11.1-16.8,11.1c-6,0-10.2-2.1-13-6.4c-2.8-4.4-4.3-11.5-4.3-21.1v-7.7c0-9.3,1.5-16.3,4.4-20.7
				c2.8-4.2,7-6.3,13.1-6.3C866.8,352.8,872.2,356.7,875.6,364.9z"/>
			<path class="st0" d="M910.3,330.1c2.1,0,3.7-0.7,4.9-2.2c1.1-1.4,1.7-3,1.7-5c0-1.9-0.6-3.6-1.7-5c-1.2-1.5-2.8-2.2-4.9-2.2
				c-2.1,0-3.7,0.7-4.9,2.2c-1.1,1.4-1.6,3-1.6,5c0,1.9,0.6,3.6,1.6,4.9C906.6,329.4,908.3,330.1,910.3,330.1z"/>
			<rect x="904.9" y="343.9" class="st0" width="10.6" height="79.8"/>
			<path class="st0" d="M938.2,404.7c0.3,13.5,5.5,20.4,15.6,20.4c3.6,0,6.3-0.4,8.3-1.3l0.8-0.4l-0.3-9.6l-1.5,0.3
				c-2.5,0.5-4.3,0.7-5.5,0.7c-2.5,0-4.2-0.8-5.2-2.5c-1.1-1.8-1.7-4.8-1.7-8.7v-49.9H962v-9.8h-13.2v-19.7h-10.6v19.7h-11.9v9.8
				h11.9V404.7z"/>
			<path class="st0" d="M1015.6,415.4c0.3,3,0.7,5.4,1.2,7.3l0.3,1h10.7v-2.2l-0.1-0.5c-1.3-3.6-2-9.1-2-16.5v-37.8
				c0-7.8-2.1-13.8-6.4-18c-4.2-4.1-10.5-6.2-18.5-6.2c-7.5,0-13.8,2.3-18.8,6.9c-5,4.6-7.6,10.4-7.6,17v1.3l10.6,0.1v-1.3
				c0-4.2,1.4-7.4,4.3-10.1c2.9-2.6,6.6-3.9,11.1-3.9c4.9,0,8.7,1.1,11.1,3.3c2.4,2.1,3.6,5.8,3.6,10.9v9.4h-11.9
				c-9.4,0-16.8,2.4-22.2,7c-5.4,4.7-8.2,11-8.2,19c0,7.3,2,13,5.9,17c3.9,4,9.5,6,16.5,6c4.6,0,8.9-1.1,12.8-3.3
				C1011,420.1,1013.5,418,1015.6,415.4z M1015.2,385.4v17.1c-1.6,3.7-4,6.6-7.3,8.9c-3.4,2.3-7.3,3.4-11.6,3.4
				c-8.7,0-12.8-4.2-12.8-13.3c0-4.9,1.6-8.7,5-11.6c3.4-2.9,8.6-4.4,15.5-4.5H1015.2z"/>
			<rect x="1044.9" y="311.6" class="st0" width="10.6" height="112.1"/>
			<polygon class="st0" points="589.9,544.5 543.4,460.5 543,459.8 532.7,459.8 532.7,566.2 543.6,566.2 543.6,481.7 590,565.6 
				590.4,566.2 600.6,566.2 600.6,459.8 589.9,459.8 			"/>
			<path class="st0" d="M674.3,547.1v-37.8c0-7.8-2.2-13.9-6.4-18c-4.2-4.1-10.5-6.2-18.5-6.2c-7.5,0-13.8,2.3-18.8,6.9
				c-5,4.6-7.6,10.4-7.6,17.1v1.3l10.6,0.1v-1.3c0-4.2,1.4-7.4,4.3-10.1c2.9-2.6,6.6-3.9,11.1-3.9c4.9,0,8.7,1.1,11.1,3.3
				c2.4,2.1,3.6,5.8,3.6,10.9v9.4h-11.9c-9.4,0.1-16.8,2.4-22.2,7c-5.4,4.7-8.2,11-8.2,19c0,7.3,2,13,5.9,17c3.9,4,9.5,6,16.5,6
				c4.6,0,8.9-1.1,12.8-3.3c2.8-1.6,5.3-3.7,7.4-6.3c0.3,3,0.7,5.4,1.2,7.3l0.3,1h10.7v-2.2l-0.1-0.5
				C675,560,674.3,554.5,674.3,547.1z M663.8,528v17.2c-1.6,3.7-4,6.6-7.3,8.8c-3.3,2.3-7.2,3.4-11.6,3.4c-8.7,0-12.8-4.2-12.8-13.3
				c0-4.9,1.6-8.7,5-11.6c3.4-2.9,8.6-4.4,15.5-4.5H663.8z"/>
			<path class="st0" d="M723.8,485.1c-7,0-12.5,3.1-16.4,9.1l-0.1-7.7h-10.4v79.8h10.6l0-54.3c1.2-5,3.2-9,6-11.8
				c2.7-2.8,6-4.1,10.1-4.1c1.3,0,2.9,0.2,4.8,0.5l1.5,0.3l0.2-10.3l-0.7-0.4C727.9,485.4,726.2,485.1,723.8,485.1z"/>
			<path class="st0" d="M771.6,485.1c-7,0-12.5,3.1-16.4,9.1l-0.1-7.7h-10.4v79.8h10.6l0-54.3c1.2-5,3.2-9,6-11.8
				c2.7-2.8,6-4.1,10.1-4.1c1.3,0,2.9,0.2,4.8,0.5l1.5,0.3l0.2-10.3l-0.7-0.4C775.7,485.4,773.9,485.1,771.6,485.1z"/>
			<path class="st0" d="M839.4,547.1v-37.8c0-7.8-2.2-13.9-6.4-18c-4.2-4.1-10.5-6.2-18.5-6.2c-7.5,0-13.8,2.3-18.8,6.9
				c-5,4.6-7.6,10.4-7.6,17.1v1.3l10.6,0.1v-1.3c0-4.2,1.4-7.4,4.3-10.1c2.9-2.6,6.6-3.9,11.1-3.9c4.9,0,8.7,1.1,11.1,3.3
				c2.4,2.1,3.6,5.8,3.6,10.9v9.4h-11.9c-9.4,0.1-16.8,2.4-22.2,7c-5.4,4.7-8.2,11-8.2,19c0,7.3,2,13,5.9,17c3.9,4,9.5,6,16.5,6
				c4.6,0,8.9-1.1,12.8-3.3c2.8-1.6,5.3-3.7,7.4-6.3c0.3,3,0.7,5.4,1.2,7.3l0.3,1h10.7v-2.2l-0.1-0.5
				C840,560,839.4,554.5,839.4,547.1z M828.8,528v17.2c-1.6,3.7-4,6.6-7.3,8.8c-3.3,2.3-7.2,3.4-11.6,3.4c-8.7,0-12.8-4.2-12.8-13.3
				c0-4.9,1.6-8.7,5-11.6c3.4-2.9,8.6-4.4,15.5-4.5H828.8z"/>
			<path class="st0" d="M888.8,556.7c-2.4,0.5-4.2,0.7-5.5,0.7c-2.5,0-4.2-0.8-5.2-2.5c-1.1-1.8-1.7-4.8-1.7-8.7v-49.9h13.2v-9.8
				h-13.2v-19.7h-10.6v19.7H854v9.8h11.9v51c0.3,13.5,5.5,20.4,15.6,20.4c3.6,0,6.3-0.4,8.3-1.3l0.8-0.4l-0.3-9.6L888.8,556.7z"/>
			<path class="st0" d="M914.1,458.4c-2.1,0-3.7,0.7-4.9,2.2c-1.1,1.4-1.6,3-1.6,5c0,1.9,0.6,3.6,1.6,4.9c1.2,1.4,2.8,2.2,4.9,2.2
				c2.1,0,3.7-0.7,4.9-2.2c1.1-1.4,1.7-3,1.7-4.9c0-1.9-0.6-3.6-1.7-5C917.9,459.2,916.2,458.4,914.1,458.4z"/>
			<rect x="908.8" y="486.5" class="st0" width="10.6" height="79.8"/>
			<polygon class="st0" points="964,547.8 946.1,487.4 945.8,486.5 934.9,486.5 959.9,566.2 968.1,566.2 992.9,486.5 982,486.5 			
				"/>
			<path class="st0" d="M1059.5,528.4v-8.8c-0.1-11.5-2.5-20.2-7-25.9c-4.6-5.8-11.4-8.7-20.2-8.7c-9,0-16.3,3.4-21.4,10.2
				c-5.1,6.6-7.7,15.9-7.7,27.4v9.4c0.1,11.3,2.8,20.1,8.2,26.2c5.4,6.2,12.9,9.4,22.3,9.4c10.7,0,18.7-3.7,24-10.9l0.6-0.8
				l-5.8-7.4l-1.1,1.3c-4.5,5.3-10.2,7.9-17.4,7.9c-6.5,0-11.4-2.2-15-6.7c-3.6-4.5-5.4-11.1-5.4-19.6v-3H1059.5z M1013.8,518.3
				c0.5-7.5,2.2-13.2,5.2-17.1c3.1-4.1,7.5-6.1,13.3-6.1c10.8,0,16.3,7.4,16.6,22.5v0.7H1013.8z"/>
		</g>
		<g>
			<path class="st1" d="M186.7,249.6c-3.9-2.3-8.2-3.4-12.4-3.4c-8.4,0-16.5,4.3-21.1,12.1c-6.8,11.6-3,26.6,8.7,33.4
				c3.9,2.3,8.2,3.4,12.4,3.4c4.8,0,9.6-1.5,13.6-4.2c2.6-1.7,4.9-4,6.7-6.7c0.3-0.4,0.6-0.8,0.8-1.2
				C202.3,271.4,198.4,256.4,186.7,249.6z"/>
			<path class="st2" d="M439.5,473.4c-7.2-4.2-15.1-6.3-22.9-6.3c-10.4,0-20.6,3.7-28.7,10.3c-2.4,2-4.7,4.2-6.7,6.7
				c-1.4,1.7-2.6,3.5-3.8,5.4c-12.7,21.6-5.5,49.4,16.1,62.1c7.2,4.2,15.1,6.3,23,6.3c15.6,0,30.7-8,39.2-22.4
				C468.3,513.9,461.1,486.1,439.5,473.4z"/>
			<path class="st3" d="M441.8,181.3c-8.3-4.9-17.5-7.2-26.5-7.2c-17.9,0-35.4,9.2-45.2,25.8c-11.6,19.7-8.8,43.7,5.1,60.2
				c2,2.4,4.3,4.6,6.7,6.6c2.1,1.7,4.3,3.4,6.8,4.8c8.3,4.9,17.5,7.2,26.5,7.2c17.9,0,35.4-9.2,45.2-25.8
				C475.1,228,466.7,195.9,441.8,181.3z"/>
			<path class="st4" d="M428.7,358.9c-4.4-2.6-9.3-3.9-14.1-3.9c-9.6,0-18.9,4.9-24.1,13.8c-1.4,2.3-2.2,4.8-2.9,7.3
				c-0.8,3.1-1.1,6.3-0.8,9.4c0.8,8.6,5.5,16.8,13.6,21.5c4.4,2.6,9.3,3.9,14.1,3.9c9.6,0,18.9-4.9,24.1-13.8
				C446.5,383.8,442,366.7,428.7,358.9z"/>
			<path class="st5" d="M290.6,155.1c-5.6-3.3-11.6-4.8-17.7-4.8c-12,0-23.6,6.2-30.1,17.2c-9.8,16.6-4.2,38,12.4,47.8
				c4.1,2.4,8.5,3.9,13,4.5c1.6,0.2,3.1,0.3,4.7,0.3c1.6,0,3.2-0.1,4.8-0.3c10.2-1.4,19.7-7.3,25.4-16.9
				C312.7,186.3,307.2,164.9,290.6,155.1z"/>
			<path class="st0" d="M444.3,465.2c-8.4-5-18-7.6-27.7-7.6l0,0c-13.1,0-25.6,4.8-35.4,13.1L325.4,415c2.8-3.2,5.4-6.6,7.7-10.4
				c4.4-7.5,7.2-15.5,8.6-23.7l35.6,3.6c0.5,12.2,7,24,18.4,30.6c5.7,3.4,12.3,5.2,18.9,5.2c13.2,0,25.6-7.1,32.2-18.4
				c10.4-17.8,4.5-40.7-13.3-51.1c-5.7-3.4-12.3-5.2-18.9-5.2h0c-13.2,0-25.6,7.1-32.2,18.4c-2.1,3.5-3.5,7.3-4.3,11.1l-35.4-3.6
				c0.6-17.5-5.5-34.8-17.2-48.2l49.8-49.8c2.7,2.3,5.6,4.4,8.7,6.2c9.5,5.6,20.3,8.5,31.3,8.5c21.8,0,42.3-11.7,53.3-30.5
				c17.3-29.4,7.4-67.3-22-84.6c-9.5-5.6-20.3-8.5-31.3-8.5l0,0c-21.8,0-42.3,11.7-53.3,30.5c-8.4,14.2-10.7,30.9-6.5,46.8
				c2.4,9.4,7,17.8,13.1,24.9l-49.8,49.8c-3.2-2.8-6.7-5.4-10.5-7.6c-9.7-5.7-20.2-8.8-30.7-9.5v-70.3c13.8-1.5,26.4-9.4,33.5-21.6
				c12.4-21.1,5.3-48.3-15.8-60.7c-6.8-4-14.6-6.1-22.4-6.1h0c-15.7,0-30.3,8.4-38.3,21.9c-12.4,21.1-5.3,48.3,15.8,60.7
				c5.5,3.2,11.5,5.1,17.8,5.8v70.4c-15,1-29.5,6.9-41.1,17L201.4,291c0.8-1,1.5-2.1,2.2-3.2c4.6-7.8,5.9-16.9,3.6-25.7
				c-2.3-8.8-7.8-16.1-15.6-20.7c-5.2-3.1-11.1-4.7-17.1-4.7l0,0c-12,0-23.2,6.4-29.2,16.7c-4.6,7.8-5.9,16.9-3.6,25.7
				c2.3,8.8,7.8,16.1,15.6,20.7c5.2,3.1,11.1,4.7,17.1,4.7c7.4,0,14.6-2.5,20.4-6.8l25.7,25.7c-2.8,3.2-5.4,6.6-7.7,10.4
				c-19.5,33.2-8.4,76,24.8,95.5c11.1,6.5,23.3,9.6,35.3,9.6c16.7,0,33.1-6.1,45.9-17.3l55.8,55.8c-1.9,2.3-3.7,4.7-5.2,7.3
				c-15.3,26.1-6.6,59.7,19.5,75c8.4,4.9,18,7.6,27.7,7.6c19.4,0,37.5-10.4,47.3-27C479.1,514.2,470.3,480.6,444.3,465.2z
				 M387.6,376.1c0.6-2.5,1.5-4.9,2.9-7.3c5.2-8.8,14.5-13.8,24.1-13.8c4.8,0,9.7,1.2,14.1,3.9c13.3,7.8,17.7,24.9,9.9,38.2
				c-5.2,8.8-14.5,13.8-24.1,13.8c-4.8,0-9.7-1.2-14.1-3.9c-8.1-4.7-12.8-12.9-13.6-21.5C386.6,382.4,386.9,379.2,387.6,376.1z
				 M415.3,174c9,0,18.1,2.3,26.5,7.2c24.9,14.7,33.3,46.7,18.6,71.7c-9.8,16.6-27.2,25.8-45.2,25.8c-9,0-18.1-2.3-26.5-7.2
				c-2.4-1.4-4.7-3.1-6.8-4.8c-2.5-2-4.7-4.3-6.7-6.6c-13.9-16.5-16.7-40.6-5.1-60.2C379.9,183.3,397.4,174,415.3,174z M162,291.7
				c-11.6-6.8-15.5-21.8-8.7-33.4c4.6-7.7,12.7-12.1,21.1-12.1c4.2,0,8.5,1.1,12.4,3.4c11.6,6.8,15.5,21.8,8.7,33.4
				c-0.2,0.4-0.5,0.8-0.8,1.2c-1.8,2.7-4.1,5-6.7,6.7c-4,2.7-8.8,4.2-13.6,4.2C170.1,295.1,165.9,294,162,291.7z M272.8,429.5
				c-10.7,0-21.2-2.9-30.5-8.3c-13.9-8.2-23.8-21.3-27.8-36.9c-4.1-15.6-1.8-31.9,6.4-45.8c1.8-3.1,4-5.9,6.2-8.5
				c2.1-2.4,4.3-4.6,6.7-6.7c9.6-8.2,21.6-13.2,34.4-14.3c1.6-0.1,3.2-0.3,4.8-0.3c1.6,0,3.1,0.2,4.6,0.3c9.1,0.7,17.9,3.4,25.9,8
				c3.1,1.8,5.9,3.9,8.6,6.2c2.4,2.1,4.6,4.3,6.7,6.7c5.9,6.9,10.2,15,12.6,24c1.4,5.5,2,11,1.9,16.5c-0.1,3.2-0.4,6.3-1,9.4
				c-1.3,6.9-3.7,13.6-7.3,19.8c-1.8,3.1-4,5.9-6.2,8.5c-2.1,2.4-4.3,4.6-6.7,6.7C301.2,424.1,287.4,429.5,272.8,429.5z
				 M290.6,155.1c16.6,9.8,22.2,31.2,12.4,47.8c-5.6,9.6-15.1,15.5-25.4,16.9c-1.6,0.2-3.2,0.3-4.8,0.3c-1.6,0-3.1-0.1-4.7-0.3
				c-4.4-0.6-8.9-2.1-13-4.5c-16.6-9.8-22.2-31.2-12.4-47.8c6.5-11.1,18.2-17.2,30.1-17.2C278.9,150.3,285,151.8,290.6,155.1z
				 M416.5,557.9c-7.8,0-15.7-2-23-6.3c-21.6-12.7-28.8-40.5-16.1-62.1c1.1-1.9,2.4-3.7,3.8-5.4c2-2.5,4.3-4.7,6.7-6.7
				c8.2-6.7,18.3-10.3,28.7-10.3c7.8,0,15.7,2,22.9,6.3c21.6,12.7,28.8,40.5,16.1,62.1C447.2,549.9,432,557.9,416.5,557.9z"/>
		</g>
	</g>
	<rect class="st6" width="1200" height="708.2"/>
</g>
</svg>
