<?xml version="1.0" encoding="utf-8"?>
<!-- Generator: Adobe Illustrator 24.0.2, SVG Export Plug-In . SVG Version: 6.00 Build 0)  -->
<svg version="1.1" id="Capa_1" xmlns="http://www.w3.org/2000/svg" xmlns:xlink="http://www.w3.org/1999/xlink" x="0px" y="0px"
	 viewBox="0 0 16 16" style="enable-background:new 0 0 16 16;" xml:space="preserve">
<style type="text/css">
	.st0{fill:#0376B0;}
	.st1{fill:#4FA0B7;}
	.st2{fill:#5D86C5;}
	.st3{fill:#2E9C95;}
	.st4{fill:#8BB262;}
	.st5{fill:#002934;}
</style>
<g>
	<path class="st0" d="M3.8,4.1C3.6,4,3.5,4,3.3,4C3,4,2.7,4.1,2.5,4.4c-0.3,0.4-0.1,1,0.3,1.3C3,5.7,3.1,5.8,3.3,5.8
		c0.2,0,0.4-0.1,0.5-0.2C3.9,5.6,4,5.5,4.1,5.4c0,0,0,0,0,0C4.3,4.9,4.2,4.3,3.8,4.1z"/>
	<path class="st1" d="M13.2,12.5c-0.3-0.2-0.6-0.2-0.9-0.2c-0.4,0-0.8,0.1-1.1,0.4c-0.1,0.1-0.2,0.2-0.3,0.3
		C11,12.9,11,13,10.9,13.1c-0.5,0.8-0.2,1.9,0.6,2.3c0.3,0.2,0.6,0.2,0.9,0.2c0.6,0,1.2-0.3,1.5-0.8C14.3,14,14.1,13,13.2,12.5z"/>
	<path class="st2" d="M13.3,1.5c-0.3-0.2-0.7-0.3-1-0.3c-0.7,0-1.3,0.3-1.7,1c-0.4,0.7-0.3,1.6,0.2,2.3c0.1,0.1,0.2,0.2,0.3,0.2
		c0.1,0.1,0.2,0.1,0.3,0.2c0.3,0.2,0.7,0.3,1,0.3c0.7,0,1.3-0.3,1.7-1C14.6,3.3,14.3,2.1,13.3,1.5z"/>
	<path class="st3" d="M12.8,8.2C12.7,8.1,12.5,8,12.3,8c-0.4,0-0.7,0.2-0.9,0.5c-0.1,0.1-0.1,0.2-0.1,0.3c0,0.1,0,0.2,0,0.4
		c0,0.3,0.2,0.6,0.5,0.8c0.2,0.1,0.3,0.1,0.5,0.1c0.4,0,0.7-0.2,0.9-0.5C13.5,9.1,13.3,8.5,12.8,8.2z"/>
	<path class="st4" d="M7.7,0.5C7.5,0.4,7.2,0.4,7,0.4C6.6,0.4,6.1,0.6,5.9,1C5.5,1.6,5.7,2.4,6.3,2.8C6.5,2.9,6.7,2.9,6.8,3
		C6.9,3,6.9,3,7,3c0.1,0,0.1,0,0.2,0c0.4-0.1,0.7-0.3,1-0.6C8.5,1.7,8.3,0.9,7.7,0.5z"/>
	<path class="st5" d="M13.4,12.2c-0.3-0.2-0.7-0.3-1-0.3h0c-0.5,0-1,0.2-1.3,0.5L9,10.3c0.1-0.1,0.2-0.2,0.3-0.4
		C9.4,9.6,9.5,9.3,9.6,9l1.3,0.1c0,0.5,0.3,0.9,0.7,1.1c0.2,0.1,0.5,0.2,0.7,0.2c0.5,0,1-0.3,1.2-0.7c0.4-0.7,0.2-1.5-0.5-1.9
		c-0.2-0.1-0.5-0.2-0.7-0.2h0c-0.5,0-1,0.3-1.2,0.7C11,8.5,11,8.6,10.9,8.8L9.6,8.7C9.6,8,9.4,7.3,9,6.8L10.8,5
		c0.1,0.1,0.2,0.2,0.3,0.2c0.4,0.2,0.8,0.3,1.2,0.3c0.8,0,1.6-0.4,2-1.1c0.6-1.1,0.3-2.5-0.8-3.2c-0.4-0.2-0.8-0.3-1.2-0.3h0
		c-0.8,0-1.6,0.4-2,1.1C10,2.6,9.9,3.2,10.1,3.8c0.1,0.4,0.3,0.7,0.5,0.9L8.7,6.6C8.6,6.5,8.5,6.4,8.3,6.3C8,6.1,7.6,6,7.2,6V3.3
		c0.5-0.1,1-0.4,1.3-0.8c0.5-0.8,0.2-1.8-0.6-2.3C7.6,0.1,7.3,0,7,0l0,0C6.4,0,5.9,0.3,5.6,0.8C5.1,1.6,5.4,2.6,6.2,3.1
		c0.2,0.1,0.4,0.2,0.7,0.2V6C6.3,6,5.7,6.2,5.3,6.6l-1-1c0,0,0.1-0.1,0.1-0.1c0.2-0.3,0.2-0.6,0.1-1C4.4,4.2,4.2,3.9,3.9,3.8
		C3.8,3.7,3.5,3.6,3.3,3.6h0c-0.4,0-0.9,0.2-1.1,0.6C2,4.5,2,4.9,2.1,5.2C2.2,5.5,2.4,5.8,2.7,6c0.2,0.1,0.4,0.2,0.6,0.2
		c0.3,0,0.5-0.1,0.8-0.3l1,1C4.9,7,4.8,7.1,4.7,7.2C4,8.5,4.4,10.1,5.7,10.8c0.4,0.2,0.9,0.4,1.3,0.4c0.6,0,1.2-0.2,1.7-0.6l2.1,2.1
		c-0.1,0.1-0.1,0.2-0.2,0.3c-0.6,1-0.2,2.2,0.7,2.8c0.3,0.2,0.7,0.3,1,0.3c0.7,0,1.4-0.4,1.8-1C14.7,14,14.4,12.7,13.4,12.2z
		 M11.3,8.8c0-0.1,0.1-0.2,0.1-0.3C11.6,8.2,12,8,12.3,8c0.2,0,0.4,0,0.5,0.1c0.5,0.3,0.7,0.9,0.4,1.4c-0.2,0.3-0.5,0.5-0.9,0.5
		c-0.2,0-0.4,0-0.5-0.1c-0.3-0.2-0.5-0.5-0.5-0.8C11.3,9.1,11.3,8.9,11.3,8.8z M12.3,1.2c0.3,0,0.7,0.1,1,0.3
		c0.9,0.5,1.2,1.8,0.7,2.7c-0.4,0.6-1,1-1.7,1c-0.3,0-0.7-0.1-1-0.3c-0.1-0.1-0.2-0.1-0.3-0.2c-0.1-0.1-0.2-0.2-0.3-0.2
		c-0.5-0.6-0.6-1.5-0.2-2.3C11,1.6,11.7,1.2,12.3,1.2z M2.8,5.7C2.4,5.4,2.3,4.8,2.5,4.4C2.7,4.1,3,4,3.3,4c0.2,0,0.3,0,0.5,0.1
		c0.4,0.3,0.6,0.8,0.3,1.3c0,0,0,0,0,0C4,5.5,3.9,5.6,3.8,5.6C3.7,5.7,3.5,5.8,3.3,5.8C3.1,5.8,3,5.7,2.8,5.7z M7,10.8
		c-0.4,0-0.8-0.1-1.1-0.3c-0.5-0.3-0.9-0.8-1-1.4C4.7,8.5,4.7,7.9,5,7.4c0.1-0.1,0.1-0.2,0.2-0.3C5.4,7,5.4,6.9,5.5,6.8
		c0.4-0.3,0.8-0.5,1.3-0.5c0.1,0,0.1,0,0.2,0c0.1,0,0.1,0,0.2,0c0.3,0,0.7,0.1,1,0.3c0.1,0.1,0.2,0.1,0.3,0.2C8.6,6.9,8.6,7,8.7,7.1
		C8.9,7.4,9.1,7.7,9.2,8c0.1,0.2,0.1,0.4,0.1,0.6c0,0.1,0,0.2,0,0.4c0,0.3-0.1,0.5-0.3,0.7C8.9,9.8,8.8,9.9,8.7,10
		c-0.1,0.1-0.2,0.2-0.3,0.2C8.1,10.6,7.5,10.8,7,10.8z M7.7,0.5c0.6,0.4,0.8,1.2,0.5,1.8C7.9,2.7,7.6,2.9,7.2,3C7.1,3,7.1,3,7,3
		C6.9,3,6.9,3,6.8,3c-0.2,0-0.3-0.1-0.5-0.2C5.7,2.4,5.5,1.6,5.9,1C6.1,0.6,6.6,0.4,7,0.4C7.2,0.4,7.5,0.4,7.7,0.5z M12.4,15.6
		c-0.3,0-0.6-0.1-0.9-0.2c-0.8-0.5-1.1-1.5-0.6-2.3c0-0.1,0.1-0.1,0.1-0.2c0.1-0.1,0.2-0.2,0.3-0.3c0.3-0.2,0.7-0.4,1.1-0.4
		c0.3,0,0.6,0.1,0.9,0.2c0.8,0.5,1.1,1.5,0.6,2.3C13.5,15.3,13,15.6,12.4,15.6z"/>
</g>
</svg>
